<svg xmlns="http://www.w3.org/2000/svg" width="24" height="24" fill="currentColor" viewBox="0 0 24 24">
  <path d="m1.5 21.25 1.45-4.95a10.232 10.232 0 0 1-.712-2.1A10.167 10.167 0 0 1 2 12a9.74 9.74 0 0 1 .788-3.9 10.099 10.099 0 0 1 2.137-3.175c.9-.9 1.958-1.612 3.175-2.137A9.738 9.738 0 0 1 12 2a9.74 9.74 0 0 1 3.9.788 10.098 10.098 0 0 1 3.175 2.137c.9.9 1.613 1.958 2.137 3.175A9.738 9.738 0 0 1 22 12a9.738 9.738 0 0 1-.788 3.9 10.098 10.098 0 0 1-2.137 3.175c-.9.9-1.958 1.613-3.175 2.137A9.737 9.737 0 0 1 12 22c-.75 0-1.483-.08-2.2-.238a10.23 10.23 0 0 1-2.1-.712L2.75 22.5a.936.936 0 0 1-1-.25.936.936 0 0 1-.25-1Zm2.45-1.2 3.2-.95a.949.949 0 0 1 .275-.063c.1-.008.192-.012.275-.012.15 0 .296.013.438.038.141.024.279.07.412.137a7.434 7.434 0 0 0 1.675.6c.583.133 1.175.2 1.775.2 2.233 0 4.125-.775 5.675-2.325C19.225 16.125 20 14.233 20 12c0-2.233-.775-4.125-2.325-5.675C16.125 4.775 14.233 4 12 4c-2.233 0-4.125.775-5.675 2.325C4.775 7.875 4 9.767 4 12c0 .6.067 1.192.2 1.775s.333 1.142.6 1.675c.117.217.18.446.188.688a2.29 2.29 0 0 1-.088.712l-.95 3.2Z"/>
</svg>
