<svg xmlns="http://www.w3.org/2000/svg" width="24" height="24" fill="currentColor" viewBox="0 0 24 24">
  <path d="M12.712 16.712A.968.968 0 0 1 12 17a.967.967 0 0 1-.713-.288A.968.968 0 0 1 11 16c0-.283.096-.52.287-.713A.967.967 0 0 1 12 15a.97.97 0 0 1 .712.287c.192.192.288.43.288.713s-.096.52-.288.712Zm0-3.999A.968.968 0 0 1 12 13a.967.967 0 0 1-.713-.287A.968.968 0 0 1 11 12V8c0-.283.096-.52.287-.713A.967.967 0 0 1 12 7a.97.97 0 0 1 .712.287c.192.192.288.43.288.713v4a.97.97 0 0 1-.288.713Z"/>
  <path d="M2.95 16.3a10.233 10.233 0 0 1-.713-2.1A10.168 10.168 0 0 1 2 12a9.74 9.74 0 0 1 .787-3.9 10.099 10.099 0 0 1 2.138-3.175c.9-.9 1.958-1.612 3.175-2.137A9.737 9.737 0 0 1 12 2a9.74 9.74 0 0 1 3.9.788 10.1 10.1 0 0 1 3.175 2.137c.9.9 1.612 1.958 2.137 3.175A9.738 9.738 0 0 1 22 12a9.738 9.738 0 0 1-.788 3.9 10.098 10.098 0 0 1-2.137 3.175 10.1 10.1 0 0 1-3.175 2.137A9.738 9.738 0 0 1 12 22c-.75 0-1.484-.08-2.2-.238a10.23 10.23 0 0 1-2.1-.712L2.75 22.5a.936.936 0 0 1-1-.25.936.936 0 0 1-.25-1l1.45-4.95Zm4.2 2.8a.949.949 0 0 1 .275-.063c.1-.008.191-.012.275-.012.15 0 .296.013.437.038.142.024.28.07.413.137a7.434 7.434 0 0 0 1.675.6c.583.133 1.175.2 1.775.2 2.233 0 4.125-.775 5.675-2.325C19.225 16.125 20 14.233 20 12c0-2.233-.775-4.125-2.325-5.675C16.125 4.775 14.233 4 12 4c-2.234 0-4.125.775-5.675 2.325C4.775 7.875 4 9.767 4 12c0 .6.066 1.192.2 1.775.133.583.333 1.142.6 1.675.116.217.179.446.187.688.009.241-.02.479-.087.712l-.95 3.2 3.2-.95Z"/>
</svg>
