<svg width="24" height="24" viewBox="0 0 24 24" fill="none" xmlns="http://www.w3.org/2000/svg">
<path d="M8.69999 17.3C8.51665 17.1167 8.42499 16.8834 8.42499 16.6C8.42499 16.3167 8.51665 16.0834 8.69999 15.9L12.6 12L8.69999 8.10005C8.51665 7.91672 8.42499 7.68338 8.42499 7.40005C8.42499 7.11672 8.51665 6.88338 8.69999 6.70005C8.88332 6.51672 9.11665 6.42505 9.39999 6.42505C9.68332 6.42505 9.91665 6.51672 10.1 6.70005L14.7 11.3C14.8 11.4 14.8708 11.5084 14.9125 11.625C14.9542 11.7417 14.975 11.8667 14.975 12C14.975 12.1334 14.9542 12.2584 14.9125 12.375C14.8708 12.4917 14.8 12.6 14.7 12.7L10.1 17.3C9.91665 17.4834 9.68332 17.575 9.39999 17.575C9.11665 17.575 8.88332 17.4834 8.69999 17.3Z" fill="currentColor"/>
</svg>
