<svg xmlns="http://www.w3.org/2000/svg" width="24" height="24" fill="currentColor" viewBox="0 0 24 24">
  <path d="M17.25 11.672a.907.907 0 0 1-.663-.282L12.61 7.413a.907.907 0 0 1-.282-.663c0-.254.094-.475.282-.663l3.977-3.977a.907.907 0 0 1 .663-.282c.254 0 .475.094.663.282l3.977 3.977a.907.907 0 0 1 .282.663.907.907 0 0 1-.282.663l-3.977 3.977a.907.907 0 0 1-.663.282Zm2.475-4.922L17.25 4.275 14.775 6.75l2.475 2.475 2.475-2.475ZM4 11a.967.967 0 0 1-.712-.287A.968.968 0 0 1 3 10V4c0-.283.096-.52.288-.712A.968.968 0 0 1 4 3h6a.97.97 0 0 1 .713.288A.968.968 0 0 1 11 4v6c0 .283-.096.52-.287.713A.968.968 0 0 1 10 11H4Zm5-2V5H5v4h4Zm5 12a.968.968 0 0 1-.713-.288A.968.968 0 0 1 13 20v-6c0-.283.096-.52.287-.713A.968.968 0 0 1 14 13h6a.97.97 0 0 1 .712.287c.192.192.288.43.288.713v6c0 .283-.096.52-.288.712A.968.968 0 0 1 20 21h-6Zm5-2v-4h-4v4h4ZM4 21a.967.967 0 0 1-.712-.288A.968.968 0 0 1 3 20v-6a.97.97 0 0 1 .288-.713A.967.967 0 0 1 4 13h6c.283 0 .52.096.713.287.191.192.287.43.287.713v6a.97.97 0 0 1-.287.712A.968.968 0 0 1 10 21H4Zm5-2v-4H5v4h4Z"/>
</svg>
