<svg xmlns="http://www.w3.org/2000/svg" width="24" height="24" fill="currentColor" viewBox="0 0 24 24">
  <path d="M14 13c.283 0 .52-.096.713-.287A.968.968 0 0 0 15 12a.968.968 0 0 0-.287-.713A.968.968 0 0 0 14 11a.968.968 0 0 0-.713.287A.968.968 0 0 0 13 12c0 .283.096.52.287.713.192.191.43.287.713.287Z"/>
  <path d="M10.385 21.788A.998.998 0 0 1 10 21V3a1.003 1.003 0 0 1 1.242-.97l8 2A1 1 0 0 1 20 5v14a1 1 0 0 1-.758.97l-8 2a.998.998 0 0 1-.857-.182ZM18 5.781l-6-1.5v15.438l6-1.5V5.781ZM9 6H7v12h2v2H7a2 2 0 0 1-2-2V6a2 2 0 0 1 2-2h2v2Z"/>
</svg>
