<svg xmlns="http://www.w3.org/2000/svg" width="24" height="24" fill="currentColor" viewBox="0 0 24 24">
  <path d="M12 3c7 0 7 7 7 7v6l1.293 1.293c.63.63.184 1.707-.707 1.707H4.414c-.89 0-1.337-1.077-.707-1.707L5 16v-6s0-7 7-7Zm5 7.01v-.022l-.009-.146a6.598 6.598 0 0 0-.073-.607 6.604 6.604 0 0 0-.582-1.84c-.319-.638-.766-1.215-1.399-1.637C14.317 5.344 13.4 5 12 5s-2.317.344-2.938.758c-.632.422-1.08.999-1.398 1.636a6.607 6.607 0 0 0-.582 1.841A6.593 6.593 0 0 0 7 9.988v6.84L6.828 17h10.344L17 16.828V10.01ZM12 22a2 2 0 0 1-2-2h4a2 2 0 0 1-2 2Z"/>
</svg>
