<svg width="24" height="24" viewBox="0 0 24 24" fill="none" xmlns="http://www.w3.org/2000/svg">
<path d="M12 3C19 3 19 10 19 10V16L20.2929 17.2929C20.9229 17.9229 20.4767 19 19.5858 19H4.41424C3.52333 19 3.07716 17.9229 3.70713 17.2929L5.00002 16V10C5.00002 10 5.00002 3 12 3ZM17 10.0104L16.9994 9.98802C16.9985 9.96033 16.9963 9.91049 16.9914 9.84171C16.9816 9.70348 16.9608 9.49294 16.9179 9.23505C16.8303 8.70978 16.659 8.04 16.3362 7.39443C16.0173 6.75669 15.5704 6.17979 14.9375 5.75785C14.3171 5.34426 13.4001 5 12 5C10.6 5 9.68293 5.34426 9.06255 5.75785C8.42964 6.17979 7.98275 6.75669 7.66388 7.39443C7.34109 8.04 7.16973 8.70978 7.08218 9.23505C7.0392 9.49294 7.01849 9.70348 7.00861 9.84171C7.0037 9.91049 7.00154 9.96033 7.00062 9.98802L7.00002 10.0104V16.8284L6.82845 17H17.1716L17 16.8284V10.0104Z" fill="currentColor"/>
<path d="M12 22C10.8954 22 10 21.1046 10 20H14C14 21.1046 13.1046 22 12 22Z" fill="currentColor"/>
</svg>
