<svg width="24" height="24" viewBox="0 0 24 24" fill="none" xmlns="http://www.w3.org/2000/svg">
<path d="M11.9999 3C18.9999 3 18.9999 10 18.9999 10V16L20.2928 17.2929C20.9228 17.9229 20.4766 19 19.5857 19H4.41411C3.52321 19 3.07704 17.9229 3.70701 17.2929L4.9999 16V10C4.9999 10 4.9999 3 11.9999 3ZM16.9999 10.0104L16.9993 9.98802C16.9984 9.96033 16.9962 9.91049 16.9913 9.84171C16.9814 9.70348 16.9607 9.49294 16.9177 9.23505C16.8302 8.70978 16.6588 8.04 16.336 7.39443C16.0172 6.75669 15.5703 6.17979 14.9374 5.75785C14.317 5.34426 13.3999 5 11.9999 5C10.5999 5 9.68281 5.34426 9.06243 5.75785C8.42952 6.17979 7.98262 6.75669 7.66375 7.39443C7.34097 8.04 7.16961 8.70978 7.08206 9.23505C7.03908 9.49294 7.01836 9.70348 7.00849 9.84171C7.00358 9.91049 7.00142 9.96033 7.0005 9.98802L6.9999 10.0104V16.8284L6.82833 17H17.1715L16.9999 16.8284V10.0104Z" fill="currentColor"/>
<path d="M11.9999 22C10.8953 22 9.99988 21.1046 9.99988 20H13.9999C13.9999 21.1046 13.1044 22 11.9999 22Z" fill="currentColor"/>
</svg>
