<svg xmlns="http://www.w3.org/2000/svg" width="24" height="24" fill="currentColor" viewBox="0 0 24 24">
  <path d="M16 12a4 4 0 1 1-8 0 4 4 0 0 1 8 0Zm-2 0a2 2 0 1 0-4 0 2 2 0 0 0 4 0Z"/>
  <path d="M11.312 2h1.376A2.312 2.312 0 0 1 15 4.312v.247l.002.003c.01.014.031.033.064.047.03.013.056.013.07.01h.002l.177-.177a2.312 2.312 0 0 1 3.27 0l.973.974a2.312 2.312 0 0 1 0 3.269l-.177.177v.003a.134.134 0 0 0 .01.07.153.153 0 0 0 .047.063l.003.002h.247A2.312 2.312 0 0 1 22 11.312v1.376A2.312 2.312 0 0 1 19.688 15h-.247l-.003.002a.152.152 0 0 0-.047.064.134.134 0 0 0-.01.07v.002l.177.177a2.312 2.312 0 0 1 0 3.27l-.974.973a2.312 2.312 0 0 1-3.269 0l-.177-.177h-.003a.134.134 0 0 0-.07.01.152.152 0 0 0-.063.047l-.002.003v.247A2.312 2.312 0 0 1 12.688 22h-1.376A2.312 2.312 0 0 1 9 19.688v-.247l-.002-.003a.153.153 0 0 0-.064-.047.134.134 0 0 0-.07-.01h-.002l-.177.177a2.312 2.312 0 0 1-3.27 0l-.973-.974a2.312 2.312 0 0 1 0-3.269l.177-.177v-.003a.135.135 0 0 0-.01-.07.152.152 0 0 0-.047-.063L4.559 15h-.247A2.312 2.312 0 0 1 2 12.688v-1.376A2.312 2.312 0 0 1 4.312 9h.247l.003-.002a.153.153 0 0 0 .047-.064.135.135 0 0 0 .01-.07v-.002l-.177-.177a2.312 2.312 0 0 1 0-3.27l.974-.973a2.312 2.312 0 0 1 3.269 0l.177.177h.003a.135.135 0 0 0 .07-.01.153.153 0 0 0 .063-.047L9 4.559v-.247A2.312 2.312 0 0 1 11.312 2ZM11 4.312v.257c0 .893-.59 1.593-1.299 1.887-.716.297-1.622.21-2.248-.418l-.182-.182a.312.312 0 0 0-.441 0l-.974.974a.312.312 0 0 0 0 .44l.182.183c.627.626.715 1.531.418 2.248C6.162 10.41 5.462 11 4.569 11h-.257a.312.312 0 0 0-.312.312v1.376c0 .172.14.312.312.312h.257c.893 0 1.593.59 1.887 1.299.297.716.21 1.622-.418 2.248l-.182.182a.312.312 0 0 0 0 .441l.974.973a.31.31 0 0 0 .44 0l.183-.181c.626-.627 1.532-.715 2.248-.418.709.294 1.299.994 1.299 1.887v.257c0 .172.14.312.312.312h1.376c.172 0 .312-.14.312-.312v-.257c0-.893.59-1.593 1.299-1.887.716-.297 1.622-.21 2.248.418l.182.181c.122.122.32.122.441 0l.973-.973a.312.312 0 0 0 0-.44l-.181-.183c-.627-.627-.715-1.532-.418-2.248.294-.709.994-1.299 1.887-1.299h.257c.172 0 .312-.14.312-.312v-1.376a.312.312 0 0 0-.312-.312h-.257c-.893 0-1.593-.59-1.887-1.299-.297-.717-.21-1.622.418-2.248l.181-.182a.312.312 0 0 0 0-.441l-.973-.974a.312.312 0 0 0-.44 0l-.183.182c-.627.627-1.532.715-2.248.418C13.59 6.162 13 5.462 13 4.569v-.257A.312.312 0 0 0 12.688 4h-1.376a.312.312 0 0 0-.312.312Z"/>
</svg>
