<svg xmlns="http://www.w3.org/2000/svg" width="24" height="24" fill="currentColor" viewBox="0 0 24 24">
  <path d="M4 3h16a2 2 0 0 1 2 2v12a2 2 0 0 1-2 2H6l-2.293 2.293c-.63.63-1.707.184-1.707-.707V5a2 2 0 0 1 2-2Zm3 7h10a.97.97 0 0 0 .712-.287A.967.967 0 0 0 18 9a.967.967 0 0 0-.288-.713A.968.968 0 0 0 17 8H7a.968.968 0 0 0-.713.287A.968.968 0 0 0 6 9c0 .283.096.52.287.713.192.191.43.287.713.287Zm0 4h6c.283 0 .52-.096.713-.287A.968.968 0 0 0 14 13a.968.968 0 0 0-.287-.713A.968.968 0 0 0 13 12H7a.967.967 0 0 0-.713.287A.968.968 0 0 0 6 13c0 .283.096.52.287.713.192.191.43.287.713.287Z"/>
</svg>
