<svg width="24" height="24" viewBox="0 0 24 24" fill="none" xmlns="http://www.w3.org/2000/svg">
<path d="M4 3H20C21.1046 3 22 3.89543 22 5V17C22 18.1046 21.1046 19 20 19H6L3.70711 21.2929C3.07714 21.9229 2 21.4767 2 20.5858V5C2 3.89543 2.89543 3 4 3ZM7 10H17C17.2833 10 17.5208 9.90417 17.7125 9.7125C17.9042 9.52083 18 9.28333 18 9C18 8.71667 17.9042 8.47917 17.7125 8.2875C17.5208 8.09583 17.2833 8 17 8H7C6.71667 8 6.47917 8.09583 6.2875 8.2875C6.09583 8.47917 6 8.71667 6 9C6 9.28333 6.09583 9.52083 6.2875 9.7125C6.47917 9.90417 6.71667 10 7 10ZM7 14H13C13.2833 14 13.5208 13.9042 13.7125 13.7125C13.9042 13.5208 14 13.2833 14 13C14 12.7167 13.9042 12.4792 13.7125 12.2875C13.5208 12.0958 13.2833 12 13 12H7C6.71667 12 6.47917 12.0958 6.2875 12.2875C6.09583 12.4792 6 12.7167 6 13C6 13.2833 6.09583 13.5208 6.2875 13.7125C6.47917 13.9042 6.71667 14 7 14Z" fill="currentColor"/>
</svg>
