<svg xmlns="http://www.w3.org/2000/svg" width="24" height="24" fill="currentColor" viewBox="0 0 24 24">
  <path d="M9.175 13.825C9.958 14.608 10.9 15 12 15s2.042-.392 2.825-1.175C15.608 13.042 16 12.1 16 11s-.392-2.042-1.175-2.825C14.042 7.392 13.1 7 12 7s-2.042.392-2.825 1.175C8.392 8.958 8 9.9 8 11s.392 2.042 1.175 2.825Zm4.237-1.412A1.926 1.926 0 0 1 12 13c-.55 0-1.02-.196-1.412-.588A1.926 1.926 0 0 1 10 11c0-.55.196-1.02.588-1.412A1.926 1.926 0 0 1 12 9c.55 0 1.02.196 1.412.588.392.391.588.862.588 1.412 0 .55-.196 1.02-.588 1.412Z"/>
  <path d="M22 12c0 5.523-4.477 10-10 10S2 17.523 2 12 6.477 2 12 2s10 4.477 10 10Zm-2 0a8 8 0 1 0-16 0 8 8 0 0 0 16 0Z"/>
  <path d="M16.23 18.792a12.47 12.47 0 0 0-1.455-.455 11.6 11.6 0 0 0-5.55 0c-.487.12-.972.271-1.455.455a8.04 8.04 0 0 1-1.729-1.454c.89-.412 1.794-.729 2.709-.95A13.76 13.76 0 0 1 12 16c1.1 0 2.183.13 3.25.387a14.78 14.78 0 0 1 2.709.95 8.042 8.042 0 0 1-1.73 1.455Z"/>
</svg>
