<svg xmlns="http://www.w3.org/2000/svg" width="24" height="24" fill="currentColor" viewBox="0 0 24 24">
  <path d="M12 16c1.25 0 2.313-.438 3.188-1.313.874-.874 1.312-1.937 1.312-3.187 0-1.25-.438-2.313-1.313-3.188C14.313 7.439 13.25 7 12 7c-1.25 0-2.312.438-3.187 1.313C7.938 9.187 7.5 10.25 7.5 11.5c0 1.25.438 2.313 1.313 3.188C9.688 15.562 10.75 16 12 16Zm0-1.8c-.75 0-1.387-.262-1.912-.787A2.604 2.604 0 0 1 9.3 11.5c0-.75.263-1.387.787-1.912A2.604 2.604 0 0 1 12 8.8c.75 0 1.387.262 1.912.787.525.526.788 1.163.788 1.913s-.262 1.387-.787 1.912A2.604 2.604 0 0 1 12 14.2Zm0 4.8c-2.317 0-4.433-.613-6.35-1.837-1.917-1.226-3.367-2.88-4.35-4.963a.812.812 0 0 1-.1-.313 2.93 2.93 0 0 1 0-.774.812.812 0 0 1 .1-.313c.983-2.083 2.433-3.738 4.35-4.963C7.567 4.614 9.683 4 12 4c2.317 0 4.433.612 6.35 1.838 1.917 1.224 3.367 2.879 4.35 4.962a.81.81 0 0 1 .1.313 2.925 2.925 0 0 1 0 .774.81.81 0 0 1-.1.313c-.983 2.083-2.433 3.738-4.35 4.963C16.433 18.387 14.317 19 12 19Zm0-2a9.544 9.544 0 0 0 5.188-1.488A9.773 9.773 0 0 0 20.8 11.5a9.773 9.773 0 0 0-3.613-4.013A9.544 9.544 0 0 0 12 6a9.545 9.545 0 0 0-5.187 1.487A9.773 9.773 0 0 0 3.2 11.5a9.773 9.773 0 0 0 3.613 4.012A9.544 9.544 0 0 0 12 17Z"/>
</svg>
